<svg version="1.2" xmlns="http://www.w3.org/2000/svg" viewBox="0 0 800 800" width="800" height="800"><defs><linearGradient id="p1" x1="1" y1="1" x2="1" y2="0"><stop stop-color="#0d8cf8" offset="0.3"/><stop stop-color="#63e6ff" offset="1"/></linearGradient></defs><path fill="url(#p1)" d="m164 472.9v28h-153v-28zm0-442.9v23.7h-153v-23.7zm0 51.7v27.6h-152.9v-27.6zm0 55.6v28h-153v-28zm0 56v27.3h-152.9v-27.3zm0 55.3v28.3h-153v-28.3zm0 56.3v28h-153v-28zm0 56v28.3h-152.9v-28.3zm0 56.3v27.7h-153v-27.7zm625.9 55.7v28h-134.3v-28zm-326.3 0l9.7 28h102.3l9.6-28zm-67.3 0v28h-135.3v-28zm215-442.9l-7.4 23.7h186v-23.7zm-350.2 0v23.7h183.6l-7-23.7zm334.6 51.7l-8.7 28.3h202.9v-28.3zm-334.5 0v28.3h200.6l-8.7-28.3zm317.6 56.3l-8.3 27.6h219.6v-27.6zm-317.6 0v27.6h217.3l-8.4-27.6zm301 55.6l-8.4 27.7h236.3v-27.7zm-300.9 0v27.7h233.9l-8.3-27.7zm284.2 55.7l-8.6 28.3h117.6l1.3-3.3v3.3h134.3v-28.3zm-284.2 0v28.3h135.3v-3.3l1 3.3h114.6l-8.3-28.3zm528.8 56.3v28h-134.3v-28zm-383.2 0l9.7 28h218.3l9.6-28h-116l-3.6 13-4-13zm-10.3 0v28h-135.3v-28zm393.5 56v28h-134.3v-28zm-363.9 0l9.3 28h179.3l10-28zm-29.6 0v28h-135.3v-28zm393.5 56v27.3h-134.3v-27.3zm-344.9 0l9 27.3h141.3l9.7-27.3zm-48.7 0v27.3h-135.3v-27.3zm-342.9 161.7h87.6q-1.1-0.6-4.5-2.1-17.7-7.8-39.8-7.7-22.6 0.2-43.3 9.8zm-31.7 23.8h146.6q-0.7-1.1-3.2-4.4-3.1-4.1-6.9-7.5h-124.6q-6.9 5.5-11.9 11.9zm-9.9 23.6h65.5q0.9-3.7 3.4-6.9 3.9-3.7 11.4-3.7 18.4 0 23.2 9.5l0.5 1.1h60.3q-0.4-6.2-2.1-11.7h-159.1q-2.2 5.2-3.1 11.7zm2.8 23.9h116.5q-5.2-1.7-12.9-3.2-18.2-3.8-23.7-4.4-8.5-2.3-12.3-4.4h-70.4q0.6 6.4 2.8 12zm23.3 24h133.8q-5-7.1-13.4-12.1h-136.3q3.1 3.1 5.8 5.1 2.1 1.6 10.1 7zm57.7 21.8l8.5 1.8h76.8q-0.8-5.9-2.8-11.8h-116.7q15.5 5.9 34.2 10zm23.4 25.3h60.8q1.3-5.8 1.7-11.6h-59.3q0.3 1.4 0.3 2.2-0.9 5.3-2.8 8.4-0.6 0.6-0.7 1zm-106.9-2.1v2.1h69.5q-3.7-2.3-7.2-5.4l-7-6.2h-55.7zm11.3 21.5l4.2 4.5h140.2q4.3-5.8 7.5-12h-158.4q1 1.4 2.1 2.8 0.6 0.6 4.4 4.7zm123.7 19l5.8-2.6h-110.4q13.5 6.9 31.4 9.8 13.9 2.1 29.2 2 19.7-0.2 37.3-6.5 2.9-1 6.7-2.7zm242.3-190.7v10.5h-64.1v-10.5zm-124.1 0v10.5h-62.9v-10.5zm124.1 22.4v11.7h-64.1v-11.7zm-124.1 0v11.7h-62.8v-11.7zm124.1 23.6v12h-64.1v-12zm-124.1 0v12h-62.9v-12zm124.1 23.9v11.8h-64.1v-11.8zm-124.1 0v11.8h-62.8v-11.8zm124.1 23.7v12h-64.1v-12zm-124.2 0v12h-62.8v-12zm60 35.4l-0.1 0.1h64.2v-11.6h-64.1zm-122.8-11.5v11.6h62.8v-0.1-11.5zm110.1 35.1h73.8q2.2-6.9 2.6-11.6h-66.3q-2.3 4.5-5.7 8.1-0.4 0.4-4.4 3.5zm-107.3 0h74.3q-7.2-4.1-11.4-11.6h-65.3q0.6 5.8 2.4 11.6zm16.2 23.7h148.4q6.3-5.4 10.7-11.8h-169.6q4.2 6.4 10.5 11.8zm129.8 11.9h-111.1q17.9 8.7 37.5 10.8 8 1 28.7 1 20.7 0 44.9-11.8zm184.7 1.9l2.2 9.9h66.1l-4.7-10.4-0.4-1.4h-63.5zm-50-2v11.9h-68.6v-11.9zm-68.7-188.1v10.2h154.2q-18.3-10.2-40.5-10.2zm0 22.1v11.7h177.7q-2.9-6.5-7.9-11.7zm0 23.6v11.9h68.4v-6.7q40 0.5 44.4 6.7h69.4q0.1-1.4 0.1-4.4 0-2.8-0.8-7.5zm115 35.5h62q2.4-5.1 3.5-10.2 0.2-1.1 0.2-1.5h-63.7q0.3 2.1 0.3 2.9-0.3 4.9-2.3 8.8zm-46.7-11.7v11.7h-68.3v-11.7zm-68.4 23.6v11.7h154.8q9.1-5.6 14.6-11.7zm0 23.6v12.1h176.2q-2.8-7.8-6.5-12.1zm119.7 35.6h58.9l1.1-10.1q-0.1-0.7-0.2-1.5h-65.1q3.5 3.9 4.8 8.4 0.1 0.6 0.5 3.2zm-51.1-11.6v11.6h-68.6v-11.6zm49 34.9v0.6h61.1q-0.1-1.3-0.1-3.1v-3l-0.9-5.9h-58.6l-0.3 4.2q0 0.6-0.5 3.3-0.6 3.1-0.7 3.9zm-49-11.4v12h-68.6v-12zm303.1 23.9v11.9h-164.9v-11.9zm-1.9-188.1v10.4h-162.9v-10.4zm0 22.3v11.8h-162.9v-11.8zm-163 23.7v11.7h68.7v-11.7zm0 23.6v11.6h144.6v-11.7zm144.7 23.5v11.8h-144.7v-11.8zm0 35.3v-11.7h-144.6v11.6zm-76 11.9v12h-68.7v-12zm96.3 23.9v12.1h-164.9v-12.1z"/></svg>